/* XPM */
static char * 0_xpm[] = {
"80 80 2 1",
" 	c #DCB98A",
".	c #E8CFA6",
" ....... ....... ....... ....... ....... ....... ....... ....... ....... .......",
" ....... ....... ....... ....... ....... ....... ....... ....... ....... .......",
" ....... ....... ....... ....... ....... ....... ....... ....... ....... .......",
"                                                                                ",
"...... ....... ....... ....... ....... ....... ....... ....... ....... ....... .",
"...... ....... ....... ....... ....... ....... ....... ....... ....... ....... .",
"...... ....... ....... ....... ....... ....... ....... ....... ....... ....... .",
"                                                                                ",
" ....... ....... ....... ....... ....... ....... ....... ....... ....... .......",
" ....... ....... ....... ....... ....... ....... ....... ....... ....... .......",
" ....... ....... ....... ....... ....... ....... ....... ....... ....... .......",
"                                                                                ",
"...... ....... ....... ....... ....... ....... ....... ....... ....... ....... .",
"...... ....... ....... ....... ....... ....... ....... ....... ....... ....... .",
"...... ....... ....... ....... ....... ....... ....... ....... ....... ....... .",
"                                                                                ",
" ....... ....... ....... ....... ....... ....... ....... ....... ....... .......",
" ....... ....... ....... ....... ....... ....... ....... ....... ....... .......",
" ....... ....... ....... ....... ....... ....... ....... ....... ....... .......",
"                                                                                ",
".... ....... ....... ....... ....... ....... ....... ....... ....... ....... ...",
".... ....... ....... ....... ....... ....... ....... ....... ....... ....... ...",
".... ....... ....... ....... ....... ....... ....... ....... ....... ....... ...",
"                                                                                ",
" ....... ....... ....... ....... ....... ....... ....... ....... ....... .......",
" ....... ....... ....... ....... ....... ....... ....... ....... ....... .......",
" ....... ....... ....... ....... ....... ....... ....... ....... ....... .......",
"                                                                                ",
"...... ....... ....... ....... ....... ....... ....... ....... ....... ....... .",
"...... ....... ....... ....... ....... ....... ....... ....... ....... ....... .",
"...... ....... ....... ....... ....... ....... ....... ....... ....... ....... .",
"                                                                                ",
" ....... ....... ....... ....... ....... ....... ....... ....... ....... .......",
" ....... ....... ....... ....... ....... ....... ....... ....... ....... .......",
" ....... ....... ....... ....... ....... ....... ....... ....... ....... .......",
"                                                                                ",
".... ....... ....... ....... ....... ....... ....... ....... ....... ....... ...",
".... ....... ....... ....... ....... ....... ....... ....... ....... ....... ...",
".... ....... ....... ....... ....... ....... ....... ....... ....... ....... ...",
"                                                                                ",
" ....... ....... ....... ....... ....... ....... ....... ....... ....... .......",
" ....... ....... ....... ....... ....... ....... ....... ....... ....... .......",
" ....... ....... ....... ....... ....... ....... ....... ....... ....... .......",
"                                                                                ",
"...... ....... ....... ....... ....... ....... ....... ....... ....... ....... .",
"...... ....... ....... ....... ....... ....... ....... ....... ....... ....... .",
"...... ....... ....... ....... ....... ....... ....... ....... ....... ....... .",
"                                                                                ",
" ....... ....... ....... ....... ....... ....... ....... ....... ....... .......",
" ....... ....... ....... ....... ....... ....... ....... ....... ....... .......",
" ....... ....... ....... ....... ....... ....... ....... ....... ....... .......",
"                                                                                ",
"...... ....... ....... ....... ....... ....... ....... ....... ..... ....... ...",
"...... ....... ....... ....... ....... ....... ....... ....... ..... ....... ...",
"...... ....... ....... ....... ....... ....... ....... ....... ..... ....... ...",
"                                                                                ",
" ....... ....... ....... ....... ....... ....... ....... ....... ....... .......",
" ....... ....... ....... ....... ....... ....... ....... ....... ....... .......",
" ....... ....... ....... ....... ....... ....... ....... ....... ....... .......",
"                                                                                ",
".... ....... ....... ....... ....... ....... ....... ....... ......... ....... .",
".... ....... ....... ....... ....... ....... ....... ....... ......... ....... .",
".... ....... ....... ....... ....... ....... ....... ....... ......... ....... .",
"                                                                                ",
" ....... ....... ....... ....... ....... ....... ....... ....... ....... .......",
" ....... ....... ....... ....... ....... ....... ....... ....... ....... .......",
" ....... ....... ....... ....... ....... ....... ....... ....... ....... .......",
"                                                                                ",
"...... ....... ....... ....... ....... ....... ....... ....... ....... ....... .",
"...... ....... ....... ....... ....... ....... ....... ....... ....... ....... .",
"...... ....... ....... ....... ....... ....... ....... ....... ....... ....... .",
"                                                                                ",
" ....... ....... ....... ....... ....... ....... ....... ....... ....... .......",
" ....... ....... ....... ....... ....... ....... ....... ....... ....... .......",
" ....... ....... ....... ....... ....... ....... ....... ....... ....... .......",
"                                                                                ",
".... ....... ....... ....... ....... ....... ....... ....... ....... ....... ...",
".... ....... ....... ....... ....... ....... ....... ....... ....... ....... ...",
".... ....... ....... ....... ....... ....... ....... ....... ....... ....... ...",
"                                                                                "};
