/* XPM */
static char * 1_xpm[] = {
"80 80 3 1",
" 	c #754C60",
".	c #AA7959",
"+	c #90625D",
"                                                                                ",
" .............................................................................. ",
" .............................................................................. ",
" ++++++++++++++++++++++++++++++++++++++++++++++++++++++++++++++++++++++++++++++ ",
" .............................................................................. ",
" .............................................................................. ",
" .............................................................................. ",
" ++++++++++++++++++++++++++++++++++++++++++++++++++++++++++++++++++++++++++++++ ",
" .............................................................................. ",
" .............................................................................. ",
" .............................................................................. ",
" ++++++++++++++++++++++++++++++++++++++++++++++++++++++++++++++++++++++++++++++ ",
" .............................................................................. ",
" .............................................................................. ",
" .............................................................................. ",
" ++++++++++++++++++++++++++++++++++++++++++++++++++++++++++++++++++++++++++++++ ",
" .............................................................................. ",
" .............................................................................. ",
" .............................................................................. ",
" ++++++++++++++++++++++++++++++++++++++++++++++++++++++++++++++++++++++++++++++ ",
" .............................................................................. ",
" .............................................................................. ",
" .............................................................................. ",
" ++++++++++++++++++++++++++++++++++++++++++++++++++++++++++++++++++++++++++++++ ",
" .............................................................................. ",
" .............................................................................. ",
" .............................................................................. ",
" ++++++++++++++++++++++++++++++++++++++++++++++++++++++++++++++++++++++++++++++ ",
" .............................................................................. ",
" .............................................................................. ",
" .............................................................................. ",
" ++++++++++++++++++++++++++++++++++++++++++++++++++++++++++++++++++++++++++++++ ",
" .............................................................................. ",
" .............................................................................. ",
" .............................................................................. ",
" ++++++++++++++++++++++++++++++++++++++++++++++++++++++++++++++++++++++++++++++ ",
" .............................................................................. ",
" .............................................................................. ",
" .............................................................................. ",
" ++++++++++++++++++++++++++++++++++++++++++++++++++++++++++++++++++++++++++++++ ",
" .............................................................................. ",
" .............................................................................. ",
" .............................................................................. ",
" ++++++++++++++++++++++++++++++++++++++++++++++++++++++++++++++++++++++++++++++ ",
" .............................................................................. ",
" .............................................................................. ",
" .............................................................................. ",
" ++++++++++++++++++++++++++++++++++++++++++++++++++++++++++++++++++++++++++++++ ",
" .............................................................................. ",
" .............................................................................. ",
" .............................................................................. ",
" ++++++++++++++++++++++++++++++++++++++++++++++++++++++++++++++++++++++++++++++ ",
" .............................................................................. ",
" .............................................................................. ",
" .............................................................................. ",
" ++++++++++++++++++++++++++++++++++++++++++++++++++++++++++++++++++++++++++++++ ",
" .............................................................................. ",
" .............................................................................. ",
" .............................................................................. ",
" ++++++++++++++++++++++++++++++++++++++++++++++++++++++++++++++++++++++++++++++ ",
" .............................................................................. ",
" .............................................................................. ",
" .............................................................................. ",
" ++++++++++++++++++++++++++++++++++++++++++++++++++++++++++++++++++++++++++++++ ",
" .............................................................................. ",
" .............................................................................. ",
" .............................................................................. ",
" ++++++++++++++++++++++++++++++++++++++++++++++++++++++++++++++++++++++++++++++ ",
" .............................................................................. ",
" .............................................................................. ",
" .............................................................................. ",
" ++++++++++++++++++++++++++++++++++++++++++++++++++++++++++++++++++++++++++++++ ",
" .............................................................................. ",
" .............................................................................. ",
" .............................................................................. ",
" ++++++++++++++++++++++++++++++++++++++++++++++++++++++++++++++++++++++++++++++ ",
" .............................................................................. ",
" .............................................................................. ",
" .............................................................................. ",
"                                                                                "};
